<svg xmlns="http://www.w3.org/2000/svg" enable-background="new 0 0 32 32" viewBox="0 0 32 32" id="hipchat"><path fill="#F5E6FE" d="M26,32H6c-3.314,0-6-2.686-6-6V6c0-3.314,2.686-6,6-6h20c3.314,0,6,2.686,6,6v20C32,29.314,29.314,32,26,32z"></path><path fill="#BE63F9" d="M15.999,22.352c0.565,0,1.129-0.049,1.683-0.153l0.175-0.03c1.122,0.73,2.759,1.331,4.192,1.331c0.443,0,0.652-0.365,0.368-0.738c-0.432-0.532-1.027-1.383-1.259-2.041c0,0,0.069-0.049,0.178-0.132C22.974,19.317,24,17.474,24,15.424c0-3.823-3.582-6.924-7.998-6.924C11.584,8.5,8,11.602,8,15.424C8,19.248,11.58,22.352,15.999,22.352z M11.929,16.957h0.001c0.005-0.002,0.009-0.002,0.014-0.002c0.078,0.004,0.153,0.029,0.219,0.074c1.037,0.854,2.376,1.372,3.836,1.375h0.001c0.02,0,0.043,0.001,0.067,0.001c1.441,0,2.76-0.521,3.782-1.385l-0.009,0.007c0.055-0.051,0.128-0.082,0.208-0.082c0,0,0,0,0.001,0c0.178,0,0.319,0.142,0.322,0.318c-0.021,0.164-0.085,0.309-0.179,0.43h-0.007l-0.001-0.001c-0.477,0.715-1.956,1.932-4.169,1.932h-0.031c-2.219,0-3.695-1.225-4.17-1.932c-0.093-0.104-0.157-0.235-0.181-0.379l-0.001-0.005c-0.001-0.007-0.001-0.016-0.001-0.025C11.63,17.112,11.761,16.972,11.929,16.957z"></path></svg>