<svg xmlns="http://www.w3.org/2000/svg" version="1.1" xmlns:xlink="http://www.w3.org/1999/xlink" xmlns:svgjs="http://svgjs.dev/svgjs" width="1920" height="2160" preserveAspectRatio="none" viewBox="0 0 1920 2160"><g mask="url(&quot;#SvgjsMask1077&quot;)" fill="none"><path d="M554.249,1238.218C616.723,1238.714,679.568,1218.019,713.232,1165.388C749.489,1108.703,755.12,1035.323,721.194,977.213C687.519,919.533,620.989,890.47,554.249,893.073C491.858,895.506,439.483,935.241,408.432,989.411C377.568,1043.253,368.201,1109.353,399.581,1162.896C430.658,1215.922,492.789,1237.73,554.249,1238.218" fill="rgba(160, 170, 255, 1)" class="triangle-float2"></path><path d="M72.36,701.385C176.693,708.079,283.03,654.9,329.163,561.082C371.593,474.796,323.562,378.61,270.516,298.412C224.278,228.506,156.158,174.472,72.36,172.83C-14.25,171.133,-96.654,215.209,-139.716,290.375C-182.542,365.129,-172.581,454.865,-133.077,531.426C-89.397,616.078,-22.702,695.286,72.36,701.385" fill="rgba(160, 170, 255, 1)" class="triangle-float3"></path><path d="M1582.571,1425.88C1703.536,1419.377,1805.766,1342.462,1863.451,1235.938C1918.29,1134.67,1917.815,1013.196,1859.976,913.611C1802.399,814.477,1697.127,756.729,1582.571,752.327C1459.09,747.582,1333.311,787.398,1265.605,890.771C1191.4,1004.067,1174.986,1152.714,1244.009,1269.24C1311.931,1383.908,1449.488,1433.035,1582.571,1425.88" fill="rgba(160, 170, 255, 1)" class="triangle-float3"></path><path d="M1860.728,2759.916C2039.328,2763.187,2166.566,2601.109,2245.83,2441.028C2315.442,2300.439,2305.737,2142.553,2235.994,2002.029C2155.892,1840.631,2040.867,1661.173,1860.728,1665.086C1683.75,1668.931,1588.517,1857.791,1512.678,2017.743C1449.95,2150.043,1437.141,2294.789,1499.309,2427.354C1573.811,2586.22,1685.289,2756.703,1860.728,2759.916" fill="rgba(160, 170, 255, 1)" class="triangle-float1"></path></g><defs><mask id="SvgjsMask1077"><rect width="1920" height="2160" fill="#ffffff"></rect></mask><style>
                @keyframes float1 {
                    0%{transform: translate(0, 0)}
                    50%{transform: translate(-10px, 0)}
                    100%{transform: translate(0, 0)}
                }

                .triangle-float1 {
                    animation: float1 5s infinite;
                }

                @keyframes float2 {
                    0%{transform: translate(0, 0)}
                    50%{transform: translate(-5px, -5px)}
                    100%{transform: translate(0, 0)}
                }

                .triangle-float2 {
                    animation: float2 4s infinite;
                }

                @keyframes float3 {
                    0%{transform: translate(0, 0)}
                    50%{transform: translate(0, -10px)}
                    100%{transform: translate(0, 0)}
                }

                .triangle-float3 {
                    animation: float3 6s infinite;
                }
            </style></defs></svg>